<svg xmlns="http://www.w3.org/2000/svg" data-name="Right Button" viewBox="0 0 56 70" x="0px" y="0px"><title>right-button</title><path d="M272,140a28,28,0,1,1,28-28A28,28,0,0,1,272,140Zm0-52a24,24,0,1,0,24,24A24,24,0,0,0,272,88Zm-8,9.5v29.1c0,1.4.9,1.9,2.1,1.1l21.2-14.5a1.2,1.2,0,0,0,0-2.2L266.1,96.4C264.9,95.6,264,96.1,264,97.5Z" transform="translate(-244 -84)"/><text x="0" y="71" fill="#000000" font-size="5px" font-weight="bold" font-family="'Helvetica Neue', Helvetica, Arial-Unicode, Arial, Sans-serif">Created by Ismael Ruiz</text><text x="0" y="76" fill="#000000" font-size="5px" font-weight="bold" font-family="'Helvetica Neue', Helvetica, Arial-Unicode, Arial, Sans-serif">from the Noun Project</text></svg>