<svg xmlns="http://www.w3.org/2000/svg" xmlns:xlink="http://www.w3.org/1999/xlink" version="1.1" x="0px" y="0px" viewBox="0 0 100 125" enable-background="new 0 0 100 100" xml:space="preserve"><g><path d="M34,70.4V58.7L20.1,47.5v6.7C29.4,57.4,34,70.4,34,70.4z"/><path d="M14,70.4h17.6c0,0-3.8-12-11.4-13.7C13.2,55.2,14,70.4,14,70.4z M24.9,64.5v0.8c0,1.5-1.2,2.8-2.8,2.8h-2.3   c-1.5,0-2.8-1.2-2.8-2.8v-0.8c0-1.5,1.2-2.8,2.8-2.8h2.3C23.7,61.8,24.9,63,24.9,64.5z"/><path d="M66.7,70.1c0,0,3.9-12.3,13.1-15.5v-6.7L66.7,58.4V70.1z"/><path d="M69.2,70.1h17.6c0,0,0.1-14.7-6.9-12.9C72.4,59.1,69.2,70.1,69.2,70.1z M83.7,64.2V65c0,1.5-1.2,2.8-2.8,2.8h-2.3   c-1.5,0-2.8-1.2-2.8-2.8v-0.8c0-1.5,1.2-2.8,2.8-2.8h2.3C82.4,61.4,83.7,62.7,83.7,64.2z"/><path d="M86.9,71.6H13.7c-0.8,0-1.4,0.6-1.4,1.4v8.1c0,0.8,0.6,1.4,1.4,1.4h73.3c0.8,0,1.4-0.6,1.4-1.4V73   C88.3,72.2,87.7,71.6,86.9,71.6z"/><path d="M17,92.2c0,1.5,1.2,2.8,2.8,2.8h4.8c1.5,0,2.8-1.2,2.8-2.8v-8.1H17V92.2z"/><path d="M74.6,92.2c0,1.5,1.2,2.8,2.8,2.8h4.8c1.5,0,2.8-1.2,2.8-2.8v-8.1H74.6V92.2z"/><path d="M36.2,58.6v11.5h28.5V58.6H36.2z M61.4,66.9c0,0.5-0.4,0.9-0.9,0.9H40.3c-0.5,0-0.9-0.4-0.9-0.9v-0.3   c0-0.5,0.4-0.9,0.9-0.9h20.2c0.5,0,0.9,0.4,0.9,0.9V66.9z M61.4,62.6c0,0.5-0.4,0.9-0.9,0.9H40.3c-0.5,0-0.9-0.4-0.9-0.9v-0.3   c0-0.5,0.4-0.9,0.9-0.9h20.2c0.5,0,0.9,0.4,0.9,0.9V62.6z"/><circle cx="15" cy="40" r="3.4"/><path d="M89.2,22.8h-1.1v-1.1c0-1.8-1.5-3.3-3.3-3.3h-5V16c0-2.3-1.4-4.5-3.5-5.4C71.5,8.4,61.9,5,50,5c-11.9,0-21.5,3.4-26.3,5.6   c-2.1,0.9-3.5,3.1-3.5,5.4v2.2h-5c-1.8,0-3.3,1.5-3.3,3.3v1.1h-1.1c-0.8,0-1.4,0.6-1.4,1.4v10.5c0,0.8,0.6,1.4,1.4,1.4h4.9   c0.8,0,1.4-0.6,1.4-1.4V23.9c0-0.8-0.6-1.4-1.4-1.4h-1.1v-1.1c0-0.3,0.3-0.6,0.6-0.6h5v23.9L34,55.9h32.6l13.3-10.5V21.1h5   c0.3,0,0.6,0.3,0.6,0.6v1.1h-1.1c-0.8,0-1.4,0.6-1.4,1.4v10.5c0,0.8,0.6,1.4,1.4,1.4h4.9c0.8,0,1.4-0.6,1.4-1.4V24.2   C90.6,23.5,90,22.8,89.2,22.8z M70.6,12.8c1.8,0,3.2,1.4,3.2,3.2c0,1.8-1.4,3.2-3.2,3.2c-1.8,0-3.2-1.4-3.2-3.2   C67.4,14.3,68.8,12.8,70.6,12.8z M36.9,8.8c0,0,6.8-1.9,13.1-1.9c6.3,0,13.1,1.9,13.1,1.9V20H36.9V8.8z M28.8,12.8   c1.8,0,3.2,1.4,3.2,3.2c0,1.8-1.4,3.2-3.2,3.2s-3.2-1.4-3.2-3.2C25.6,14.3,27,12.8,28.8,12.8z M49.1,42.3H23.9V22.5h9.1l11.5,10.6   c0.2,0.2,0.4,0.3,0.7,0.3c0.3,0,0.5-0.1,0.7-0.3c0.4-0.4,0.3-1-0.1-1.4l-10-9.2h13.1V42.3z M76.1,42.3H51.7V22.5h12.7l-10,9.2   c-0.4,0.4-0.4,1-0.1,1.4c0.2,0.2,0.5,0.3,0.7,0.3c0.2,0,0.5-0.1,0.7-0.3l11.5-10.6h8.8V42.3z"/><circle cx="85" cy="40.3" r="3.4"/><path d="M42.8,11h-0.4c-0.8,0-1.4,0.6-1.4,1.4v3.1c0,0.8,0.6,1.4,1.4,1.4h0.4c0.8,0,1.4-0.6,1.4-1.4v-3.1   C44.2,11.7,43.6,11,42.8,11z"/><path d="M49.9,11h-0.4c-0.8,0-1.4,0.6-1.4,1.4v3.1c0,0.8,0.6,1.4,1.4,1.4h0.4c0.8,0,1.4-0.6,1.4-1.4v-3.1   C51.3,11.7,50.7,11,49.9,11z"/><path d="M56.9,11h-0.4c-0.8,0-1.4,0.6-1.4,1.4v3.1c0,0.8,0.6,1.4,1.4,1.4h0.4c0.8,0,1.4-0.6,1.4-1.4v-3.1   C58.3,11.7,57.7,11,56.9,11z"/></g><text x="0" y="115" fill="#000000" font-size="5px" font-weight="bold" font-family="'Helvetica Neue', Helvetica, Arial-Unicode, Arial, Sans-serif">Created by parkjisun</text><text x="0" y="120" fill="#000000" font-size="5px" font-weight="bold" font-family="'Helvetica Neue', Helvetica, Arial-Unicode, Arial, Sans-serif">from the Noun Project</text></svg>