<svg xmlns="http://www.w3.org/2000/svg" xmlns:xlink="http://www.w3.org/1999/xlink" version="1.1" x="0px" y="0px" viewBox="0 0 100 125" enable-background="new 0 0 100 100" xml:space="preserve"><path d="M50,95.3C25,95.3,4.8,75,4.8,50S25,4.8,50,4.8S95.3,25,95.3,50S75,95.3,50,95.3z M50,12.8c-20.5,0-37.3,16.7-37.3,37.3  c0,20.5,16.7,37.3,37.3,37.3c20.5,0,37.3-16.7,37.3-37.3C87.3,29.5,70.5,12.8,50,12.8z M63.8,50L45.1,31.3l-5.7,5.7L52.5,50  L39.5,63.1l5.7,5.7L63.8,50z"/><text x="0" y="115" fill="#000000" font-size="5px" font-weight="bold" font-family="'Helvetica Neue', Helvetica, Arial-Unicode, Arial, Sans-serif">Created by Gregor Črešnar</text><text x="0" y="120" fill="#000000" font-size="5px" font-weight="bold" font-family="'Helvetica Neue', Helvetica, Arial-Unicode, Arial, Sans-serif">from the Noun Project</text></svg>