<svg xmlns="http://www.w3.org/2000/svg" xmlns:xlink="http://www.w3.org/1999/xlink" version="1.1" x="0px" y="0px" viewBox="0 0 100 125" style="enable-background:new 0 0 100 100;" xml:space="preserve"><g><path d="M73,47.6v24.3c0,0.4,0.1,0.7,0.2,1l5.4,11.4c0,0,0,0.1,0.1,0.1c0.4,0.7,0.1,1.2,0,1.4c-0.1,0.2-0.5,0.7-1.3,0.7H52.8   c-1.1,0-2.1,0.8-2.4,1.9c-0.6,2.8-3.1,4.8-6,4.8s-5.3-2-6-4.8c-0.3-1.1-1.2-1.9-2.4-1.9H11.5c-0.8,0-1.1-0.5-1.3-0.7   c-0.1-0.2-0.4-0.8,0-1.4c0,0,0.1-0.1,0.1-0.1L15.7,73c0.2-0.3,0.2-0.7,0.2-1V45.1c0-15,8.2-26.4,20.8-28.9c0.8-0.2,1.4-0.7,1.7-1.4   l3.4-7.9c0,0,0-0.1,0-0.1h5.4c0,0,0,0.1,0,0.1l3.4,8c0.3,0.7,0.9,1.2,1.7,1.4c0.3,0.1,0.7,0.2,1,0.3c0.5-1.6,1.2-3.1,2-4.5   c-0.3-0.1-0.5-0.2-0.8-0.2L52,5.2c-0.5-1.9-2.2-3.2-4.2-3.2h-6.1c-2,0-3.7,1.3-4.2,3.2l-2.8,6.6c-14.3,3.5-23.5,16.4-23.5,33.4   v26.3L6,82.2c-1.1,2-1,4.3,0.1,6.2c1.1,1.9,3.2,3.1,5.4,3.1h22.9c1.7,4,5.6,6.6,10.1,6.6s8.4-2.6,10.1-6.6h22.9   c2.3,0,4.3-1.2,5.4-3.1c1.1-1.9,1.2-4.2,0.1-6.2l-5.1-10.8V47.7c-0.6,0-1.2,0.1-1.8,0.1C75,47.8,74,47.7,73,47.6z"/><path d="M76,5.3c-10.4,0-18.8,8.4-18.8,18.8S65.6,42.9,76,42.9s18.8-8.4,18.8-18.8S86.3,5.3,76,5.3z M82.6,31.6   c0,0.9-0.5,1.4-1.4,1.4h-9.4c-0.9,0-1.4-0.5-1.4-1.4v-1c0-0.9,0.5-1.4,1.4-1.4h2.5v-7.7c0-0.7,0-1.4,0-1.4h-0.1   c0,0-0.3,0.6-0.6,0.8l-0.2,0.2c-0.7,0.6-1.4,0.6-2-0.1l-0.7-0.7c-0.6-0.7-0.6-1.4,0.1-2l3.2-3c0.5-0.5,1-0.7,1.7-0.7h1.5   c0.9,0,1.4,0.5,1.4,1.4v13.1h2.5c0.9,0,1.4,0.5,1.4,1.4V31.6z"/></g><text x="0" y="115" fill="#000000" font-size="5px" font-weight="bold" font-family="'Helvetica Neue', Helvetica, Arial-Unicode, Arial, Sans-serif">Created by Michal Beno</text><text x="0" y="120" fill="#000000" font-size="5px" font-weight="bold" font-family="'Helvetica Neue', Helvetica, Arial-Unicode, Arial, Sans-serif">from the Noun Project</text></svg>