<svg xmlns:dc="http://purl.org/dc/elements/1.1/" xmlns:cc="http://creativecommons.org/ns#" xmlns:rdf="http://www.w3.org/1999/02/22-rdf-syntax-ns#" xmlns:svg="http://www.w3.org/2000/svg" xmlns="http://www.w3.org/2000/svg" xmlns:sodipodi="http://sodipodi.sourceforge.net/DTD/sodipodi-0.dtd" xmlns:inkscape="http://www.inkscape.org/namespaces/inkscape" version="1.1" x="0px" y="0px" viewBox="0 0 100 125"><g transform="translate(0,-952.36218)"><path style="font-size:medium;font-style:normal;font-variant:normal;font-weight:normal;font-stretch:normal;text-indent:0;text-align:start;text-decoration:none;line-height:normal;letter-spacing:normal;word-spacing:normal;text-transform:none;direction:ltr;block-progression:tb;writing-mode:lr-tb;text-anchor:start;baseline-shift:baseline;opacity:1;color:#000000;fill:#000000;fill-opacity:1;stroke:none;stroke-width:4;marker:none;visibility:visible;display:inline;overflow:visible;enable-background:accumulate;font-family:Sans;-inkscape-font-specification:Sans" d="M 50 6 C 47.221975 6 44.688131 6.56227 42.6875 7.625 C 40.686869 8.68773 39 10.44649 39 12.78125 L 39 14 L 32 14 A 2.0002 2.0002 0 0 0 30 16 L 30 20 L 21 20 C 18.264489 20 16 22.26455 16 25 L 16 89 C 16 91.7354 18.264489 94 21 94 L 79 94 C 81.735509 94 84 91.7354 84 89 L 84 25 C 84 22.26455 81.735509 20 79 20 L 70 20 L 70 16 A 2.0002 2.0002 0 0 0 68 14 L 61 14 L 61 12.78125 C 61 10.44649 59.313131 8.68773 57.3125 7.625 C 55.311869 6.56227 52.778025 6 50 6 z M 50 10 C 52.207975 10 54.184631 10.49073 55.4375 11.15625 C 56.690369 11.82177 57 12.46641 57 12.78125 L 57 16 A 2.0002 2.0002 0 0 0 59 18 L 66 18 L 66 26 L 34 26 L 34 18 L 41 18 A 2.0002 2.0002 0 0 0 43 16 L 43 12.78125 C 43 12.46641 43.309631 11.82177 44.5625 11.15625 C 45.815369 10.49073 47.792025 10 50 10 z M 21 24 L 30 24 L 30 28 A 2.0002 2.0002 0 0 0 32 30 L 68 30 A 2.0002 2.0002 0 0 0 70 28 L 70 24 L 79 24 C 79.588623 24 80 24.41145 80 25 L 80 89 C 80 89.5886 79.588623 90 79 90 L 21 90 C 20.411371 90 20 89.5886 20 89 L 20 25 C 20 24.41145 20.411371 24 21 24 z M 33 42 C 31.343146 42 30 43.343146 30 45 C 30 46.656854 31.343146 48 33 48 C 34.656854 48 36 46.656854 36 45 C 36 43.343146 34.656854 42 33 42 z M 44.8125 43 A 2.0021961 2.0021961 0 1 0 45 47 L 68 47 A 2.0002 2.0002 0 1 0 68 43 L 45 43 A 2.0002 2.0002 0 0 0 44.8125 43 z M 33 55 C 31.343146 55 30 56.343146 30 58 C 30 59.656854 31.343146 61 33 61 C 34.656854 61 36 59.656854 36 58 C 36 56.343146 34.656854 55 33 55 z M 44.8125 56 A 2.0021961 2.0021961 0 1 0 45 60 L 68 60 A 2.0002 2.0002 0 1 0 68 56 L 45 56 A 2.0002 2.0002 0 0 0 44.8125 56 z M 33 68 C 31.343146 68 30 69.343146 30 71 C 30 72.656854 31.343146 74 33 74 C 34.656854 74 36 72.656854 36 71 C 36 69.343146 34.656854 68 33 68 z M 44.8125 69 A 2.0021961 2.0021961 0 1 0 45 73 L 68 73 A 2.0002 2.0002 0 1 0 68 69 L 45 69 A 2.0002 2.0002 0 0 0 44.8125 69 z " transform="translate(0,952.36218)"/></g><text x="0" y="115" fill="#000000" font-size="5px" font-weight="bold" font-family="'Helvetica Neue', Helvetica, Arial-Unicode, Arial, Sans-serif">Created by romzicon</text><text x="0" y="120" fill="#000000" font-size="5px" font-weight="bold" font-family="'Helvetica Neue', Helvetica, Arial-Unicode, Arial, Sans-serif">from the Noun Project</text></svg>