<svg xmlns="http://www.w3.org/2000/svg" xmlns:xlink="http://www.w3.org/1999/xlink" version="1.1" x="0px" y="0px" viewBox="0 0 64 80" enable-background="new 0 0 64 64" xml:space="preserve"><path d="M43.429,0.757c-0.499-0.499-1.157-0.749-1.816-0.749s-1.316,0.25-1.816,0.749L0.537,40.019L0,63.991l23.99-0.52  l39.261-39.261c0.999-0.999,0.999-2.633,0-3.631L43.429,0.757z M22.297,59.507L4.093,59.902L4.5,41.712L41.614,4.599L59.41,22.395  L22.297,59.507z"/><polygon points="6.701,57.308 16.77,56.744 7.265,47.239 "/><rect x="12.473" y="29.33" transform="matrix(0.7071 -0.7071 0.7071 0.7071 -12.5822 32.2829)" width="40.412" height="4"/><text x="0" y="79" fill="#000000" font-size="5px" font-weight="bold" font-family="'Helvetica Neue', Helvetica, Arial-Unicode, Arial, Sans-serif">Created by Alfredo Hernandez</text><text x="0" y="84" fill="#000000" font-size="5px" font-weight="bold" font-family="'Helvetica Neue', Helvetica, Arial-Unicode, Arial, Sans-serif">from the Noun Project</text></svg>