<svg xmlns="http://www.w3.org/2000/svg" xmlns:xlink="http://www.w3.org/1999/xlink" version="1.1" x="0px" y="0px" viewBox="0 0 100 125" style="enable-background:new 0 0 100 100;" xml:space="preserve"><style type="text/css">
	.st0{fill:#050001;}
	.st1{fill-rule:evenodd;clip-rule:evenodd;}
</style><g><g><g><path d="M50,20.7c16.2,0,29.3,13.1,29.3,29.3S66.2,79.3,50,79.3S20.7,66.2,20.7,50S33.8,20.7,50,20.7 M50,15     c-19.3,0-35,15.7-35,35s15.7,35,35,35s35-15.7,35-35S69.3,15,50,15L50,15z"/></g><g><g><g><path d="M53.8,48.9c-0.7,0-1.5-0.3-2-0.8c-1.1-1.1-1.1-2.9,0-4l10-10c1.1-1.1,2.9-1.1,4,0c1.1,1.1,1.1,2.9,0,4l-10,10       C55.3,48.7,54.6,48.9,53.8,48.9z"/></g></g><g><path d="M63.9,49h-10c-1.6,0-2.8-1.3-2.8-2.8v-10c0-1.6,1.3-2.8,2.8-2.8s2.8,1.3,2.8,2.8v7.2h7.2c1.6,0,2.8,1.3,2.8,2.8      S65.5,49,63.9,49z"/></g></g><g><g><g><path d="M36.2,66.7c-0.7,0-1.5-0.3-2-0.8c-1.1-1.1-1.1-2.9,0-4l10-10c1.1-1.1,2.9-1.1,4,0c1.1,1.1,1.1,2.9,0,4l-10,10       C37.6,66.5,36.9,66.7,36.2,66.7z"/></g></g><g><path d="M46.1,66.7c-1.6,0-2.8-1.3-2.8-2.8v-7.2h-7.2c-1.6,0-2.8-1.3-2.8-2.8s1.3-2.8,2.8-2.8h10c1.6,0,2.8,1.3,2.8,2.8v10      C49,65.5,47.7,66.7,46.1,66.7z"/></g></g></g></g></svg>