<svg xmlns:dc="http://purl.org/dc/elements/1.1/" xmlns:cc="http://creativecommons.org/ns#" xmlns:rdf="http://www.w3.org/1999/02/22-rdf-syntax-ns#" xmlns:svg="http://www.w3.org/2000/svg" xmlns="http://www.w3.org/2000/svg" xmlns:sodipodi="http://sodipodi.sourceforge.net/DTD/sodipodi-0.dtd" xmlns:inkscape="http://www.inkscape.org/namespaces/inkscape" version="1.1" x="0px" y="0px" viewBox="0 0 100 125"><g transform="translate(0,-952.36218)"><path style="text-indent:0;text-transform:none;direction:ltr;block-progression:tb;baseline-shift:baseline;color:#000000;enable-background:accumulate;" d="m 79.340179,958.37141 a 3.0003,3.0003 0 0 0 -1.7813,0.875 l -45.25,45.24999 a 3.0003,3.0003 0 0 0 -0.875,1.7812 l -1.4063,12.7188 a 3.0003,3.0003 0 0 0 3.3126,3.3125 l 12.7187,-1.4063 a 3.0003,3.0003 0 0 0 1.8125,-0.8437 l 45.25,-45.24999 a 3.0003,3.0003 0 0 0 0,-4.25 l -11.3125,-11.3125 a 3.0003,3.0003 0 0 0 -2.4687,-0.875 z m 0.3437,7.21875 7.0625,7.09375 -1.4062,1.40625 -7.0626,-7.0625 1.4063,-1.4375 z m -70.6874991,2.78125 c -1.6398001,0.0149 -2.9671001,1.73579 -3.0000001,3 l 0,71.99999 c 2e-4,1.5707 1.4292,2.9998 3.0000001,3 l 71.9999991,0 c 1.5708,-2e-4 2.9998,-1.4293 3,-3 l 0,-43 c 0.022,-1.58497 -1.4149,-3.03127 -3,-3.03127 -1.5851,0 -3.0224,1.4463 -3,3.03127 l 0,40 -65.999999,0 0,-65.99999 39.999999,0 c 1.5849,0.0224 3.0312,-1.4149 3.0312,-3 0,-1.5851 -1.4463,-3.02241 -3.0312,-3 l -42.9999991,0 z m 65.0311991,2.875 7.0626,7.09375 -34.6563,34.65624 -7.0625,-7.0938 34.6562,-34.65619 z m -37.1874,40.59369 3.6562,3.6563 -4.0938,0.4687 0.4376,-4.125 z" fill="#2C85A2" fill-opacity="1" stroke="none" marker="none" visibility="visible" display="inline" overflow="visible"/></g></svg>