<svg xmlns="http://www.w3.org/2000/svg" xmlns:xlink="http://www.w3.org/1999/xlink" version="1.1" x="0px" y="0px" viewBox="0 0 100 100" enable-background="new 0 0 100 100" xml:space="preserve"><path d="M49.6,51.6v13.7c-1-0.7-2.4-1.5-4.2-1.5c-5.4,0-9.7,4.4-9.7,9.7c0,5.4,4.4,9.7,9.7,9.7c1.7,0,3.1-0.7,4.2-1.4v13.5h-36  c-4.3,0-7.8-3.5-7.8-7.8v-36h18c0.1-0.3,0.1-0.6,0.1-0.8c-0.2-1.3-2.5-2.9-2.5-5c0-3.4,2.8-6.2,6.2-6.2c3.4,0,6.2,2.8,6.2,6.2  c0,2.1-2.4,3.4-2.6,5c0,0.2,0,0.5,0,0.8H49.6z M82.6,51.6c0.6,1,1.1,2.2,1.1,3.7c0,5.4-4.4,9.7-9.7,9.7c-5.4,0-9.7-4.4-9.7-9.7  c0-1.5,0.5-2.7,1.2-3.7H52.1v18.1c-0.6,0.1-1.1,0.2-1.5,0.2c-0.1,0-0.1,0-0.2,0c-1.6-0.2-3-2.6-5-2.6c-3.4,0-6.2,2.8-6.2,6.2  c0,3.4,2.8,6.2,6.2,6.2c2,0,3.7-2.3,5-2.5c0.1,0,0.1,0,0.2,0c0.4,0,0.9,0.1,1.5,0.3v17.8h36c4.3,0,7.8-3.5,7.8-7.8v-36H82.6z   M55.6,32.9C55.6,32.9,55.6,32.9,55.6,32.9c0.1,0.1,0.2,0.1,0.3,0.1c0,0,0,0,0.1,0c0.1,0,0.2,0.1,0.3,0.1c0,0,0.1,0,0.1,0  c0.1,0,0.2,0,0.3,0.1c0,0,0.1,0,0.1,0c0.1,0,0.2,0,0.4,0c3.4,0,6.2-2.8,6.2-6.2s-2.8-6.2-6.2-6.2c-0.1,0-0.3,0-0.4,0  c0,0-0.1,0-0.1,0c-0.1,0-0.2,0-0.3,0.1c0,0-0.1,0-0.1,0c-0.1,0-0.2,0.1-0.3,0.1c0,0,0,0-0.1,0c-0.1,0-0.2,0.1-0.3,0.1c0,0,0,0,0,0  c-1.4,0.7-2.5,2-3.5,2.1l0,0c0,0,0,0,0,0c-0.1,0-0.1,0-0.2,0c-0.5,0-1.4-0.2-2.3-0.5V5.3h-36c-4.3,0-7.8,3.5-7.8,7.8v36h12.9  c-0.5-0.9-0.9-2-0.9-3.3c0-5.4,4.4-9.7,9.7-9.7c5.4,0,9.7,4.4,9.7,9.7c0,1.3-0.4,2.4-0.9,3.3h13.1V31.2c0.9-0.3,1.7-0.4,2.2-0.4  c0.1,0,0.1,0,0.2,0c0,0,0,0,0.1,0C53.2,30.9,54.3,32.2,55.6,32.9z M95.8,49.1v-36c0-4.3-3.5-7.8-7.8-7.8h-36v14c1.2-0.9,2.8-2,5-2  c5.4,0,9.7,4.4,9.7,9.7c0,5.4-4.4,9.7-9.7,9.7c-2.3,0-3.9-1.2-5-2v14.3h18.2c0.1,0.5,0.1,0.9,0.1,1.2c-0.2,1.6-2.6,3-2.6,5  c0,3.4,2.8,6.2,6.2,6.2s6.2-2.8,6.2-6.2c0-2-2.3-3.7-2.5-5c0-0.3,0-0.7,0.1-1.2H95.8z"></path></svg>