<svg xmlns="http://www.w3.org/2000/svg" xmlns:xlink="http://www.w3.org/1999/xlink" version="1.1" x="0px" y="0px" viewBox="0 0 48 60" enable-background="new 0 0 48 48" xml:space="preserve"><g><path fill="#000000" d="M15,10.6c4.2-1.9,15.8-6.1,27.2-1.4C38,3.9,31.4,0.5,24,0.5c-3.8,0-7.3,0.9-10.5,2.5   C13.6,4.8,14,7.6,15,10.6z"/><path fill="#000000" d="M45.7,14.7c-11.5-7.9-25-3-29.3-1.1c1.5,3,3.9,6,7.6,8.4c3.1-1.4,13.9-5.4,23.5-0.5   C47.2,19.1,46.6,16.9,45.7,14.7z"/><path fill="#000000" d="M36.7,22.5c-5,0.1-9.3,1.7-11.2,2.5C25.9,34,18.9,42,15,45.8c2.3,0.9,4.7,1.5,7.3,1.7   C36.2,37.9,36.9,26.3,36.7,22.5z"/><path fill="#000000" d="M18.8,35.9c2-3.3,3.6-7.1,3.4-11.1C13.3,19,11,10.1,10.4,4.9c-2.3,1.6-4.3,3.6-5.9,6   C4.5,16.1,6,28.4,18.8,35.9z"/><path fill="#000000" d="M17,38.6C6.5,32.4,2.9,23.1,1.8,16.3c-0.8,2.4-1.3,5-1.3,7.7c0,8.5,4.6,16,11.4,20.1   C13.2,43,15.1,41.1,17,38.6z"/><path fill="#000000" d="M40,22.6c0.2,4.4-0.8,15-12,24.6c10.7-1.8,18.9-10.8,19.5-21.9C45.1,23.8,42.5,23,40,22.6z"/></g><text x="0" y="63" fill="#000000" font-size="5px" font-weight="bold" font-family="'Helvetica Neue', Helvetica, Arial-Unicode, Arial, Sans-serif">Created by Creative Stall</text><text x="0" y="68" fill="#000000" font-size="5px" font-weight="bold" font-family="'Helvetica Neue', Helvetica, Arial-Unicode, Arial, Sans-serif">from the Noun Project</text></svg>