<svg xmlns="http://www.w3.org/2000/svg" data-name="Layer 1" viewBox="0 0 512 640" x="0px" y="0px"><title>bell1</title><path d="M488,406.72c-30.34-23.9-48.39-55.14-55.81-92.87-6-30.69-7.84-61.74-8-92.89-0.09-24.5-1.74-48.89-7.87-72.74-12-46.82-37.43-83.35-82.73-103.39-14.28-6.32-29.77-9.91-45.11-14.87C286.27,12.31,275.43,1.12,258.75,0,239.81-1.22,229,8.36,223.1,31.6c-2.55.53-5.15,1.08-7.76,1.61-55.45,11.29-93.87,42.68-113.73,95.92-10.8,29-13.77,59.15-13.89,89.73-0.11,30.26-1.56,60.4-7,90.26C74,346.42,58.2,378.94,28.1,403.21,18.92,410.61,10,417,0,427H512C503.38,419,495.86,412.9,488,406.72Z"/><path d="M258.61,512.11C292,511.23,324.85,483,324.45,455H187.77C188.9,485,223.16,513,258.61,512.11Z"/><text x="0" y="527" fill="#000000" font-size="5px" font-weight="bold" font-family="'Helvetica Neue', Helvetica, Arial-Unicode, Arial, Sans-serif">Created by i cons</text><text x="0" y="532" fill="#000000" font-size="5px" font-weight="bold" font-family="'Helvetica Neue', Helvetica, Arial-Unicode, Arial, Sans-serif">from the Noun Project</text></svg>