<svg xmlns="http://www.w3.org/2000/svg" xmlns:xlink="http://www.w3.org/1999/xlink" version="1.1" x="0px" y="0px" viewBox="0 0 100 125" style="enable-background:new 0 0 100 100;" xml:space="preserve"><g><path d="M90.7,45.7H82c-1.8-4.9-6.4-8.4-11.9-8.4c-5.5,0-10.1,3.5-11.9,8.4h-49C6.9,45.7,5,47.6,5,50   c0,2.4,1.9,4.3,4.3,4.3h49c1.8,4.9,6.4,8.4,11.9,8.4c5.5,0,10.1-3.5,11.9-8.4h8.7c2.4,0,4.3-1.9,4.3-4.3   C95,47.6,93.1,45.7,90.7,45.7z"/><path d="M90.7,78.1H40.9c-1.8-4.9-6.4-8.4-11.9-8.4c-5.5,0-10.1,3.5-11.9,8.4H9.3C6.9,78.1,5,80,5,82.3   c0,2.4,1.9,4.3,4.3,4.3h7.9C18.9,91.5,23.5,95,29,95c5.5,0,10.1-3.5,11.9-8.4h49.8c2.4,0,4.3-1.9,4.3-4.3   C95,80,93.1,78.1,90.7,78.1z"/><path d="M9.3,21.9h28.8c1.8,4.9,6.4,8.4,11.9,8.4s10.1-3.5,11.9-8.4h28.8c2.4,0,4.3-1.9,4.3-4.3   c0-2.4-1.9-4.3-4.3-4.3H61.9C60.1,8.5,55.5,5,50,5s-10.1,3.5-11.9,8.4H9.3c-2.4,0-4.3,1.9-4.3,4.3C5,20,6.9,21.9,9.3,21.9z"/></g><text x="0" y="115" fill="#000000" font-size="5px" font-weight="bold" font-family="'Helvetica Neue', Helvetica, Arial-Unicode, Arial, Sans-serif">Created by Roselin Christina.S</text><text x="0" y="120" fill="#000000" font-size="5px" font-weight="bold" font-family="'Helvetica Neue', Helvetica, Arial-Unicode, Arial, Sans-serif">from the Noun Project</text></svg>