<svg xmlns:dc="http://purl.org/dc/elements/1.1/" xmlns:cc="http://creativecommons.org/ns#" xmlns:rdf="http://www.w3.org/1999/02/22-rdf-syntax-ns#" xmlns:svg="http://www.w3.org/2000/svg" xmlns="http://www.w3.org/2000/svg" xmlns:sodipodi="http://sodipodi.sourceforge.net/DTD/sodipodi-0.dtd" xmlns:inkscape="http://www.inkscape.org/namespaces/inkscape" version="1.1" x="0px" y="0px" viewBox="0 0 100 125"><g transform="translate(0,-952.36218)"><path style="text-indent:0;text-transform:none;direction:ltr;block-progression:tb;baseline-shift:baseline;color:#000000;enable-background:accumulate;" d="m 74,966.36216 c 0.6539,0 1.0033,0.5931 1,1 l 0,23 13,0 c 0.6545,0.01 0.9924,0.5253 1,1 l 0,39.00004 c 0,4.4147 -3.5853,8 -8,8 l -62,0 c -4.4147,0 -8,-3.5853 -8,-8 l 0,-63.00004 c 0,-0.5236 0.4764,-0.9999 1,-1 z m -1,2 -60,0 0,62.00004 c 0,3.3413 2.6587,6 6,6 l 56.875,0 c -1.7214,-1.4679 -2.875,-3.5631 -2.875,-6 z m -9,8 c 0.6428,0.029 0.9768,0.5488 1,1 l 0,14 c -1e-4,0.5236 -0.4764,1 -1,1 l -20,0 c -0.5236,0 -1,-0.4764 -1,-1 l 0,-14 c 0,-0.5236 0.4764,-0.9999 1,-1 z m -1,2 -18,0 0,12 18,0 z m -27,0 c 0.5523,0 1,0.4477 1,1 0,0.5523 -0.4477,1 -1,1 l -14,0 c -0.5523,0 -1,-0.4477 -1,-1 0,-0.5523 0.4477,-1 1,-1 z m 51,14 -12,0 0,38.00004 c 0,3.3413 2.6587,6 6,6 3.3413,0 6,-2.6587 6,-6 z m -51,-4 c 0.5523,0 1,0.4477 1,1 0,0.5523 -0.4477,1 -1,1 l -14,0 c -0.5523,0 -1,-0.4477 -1,-1 0,-0.5523 0.4477,-1 1,-1 z m 28,12.00004 c 0.5523,0 1,0.4477 1,1 0,0.5523 -0.4477,1 -1,1 l -42,0 c -0.5523,0 -1,-0.4477 -1,-1 0,-0.5523 0.4477,-1 1,-1 z m 0,11 c 0.5523,0 1,0.4477 1,1 0,0.5523 -0.4477,1 -1,1 l -42,0 c -0.5523,0 -1,-0.4477 -1,-1 0,-0.5523 0.4477,-1 1,-1 z m 0,11 c 0.5523,0 1,0.4477 1,1 0,0.5523 -0.4477,1 -1,1 l -42,0 c -0.5523,0 -1,-0.4477 -1,-1 0,-0.5523 0.4477,-1 1,-1 z" fill="#000000" fill-opacity="1" stroke="none" marker="none" visibility="visible" display="inline" overflow="visible"/></g></svg>