<svg xmlns:dc="http://purl.org/dc/elements/1.1/" xmlns:cc="http://creativecommons.org/ns#" xmlns:rdf="http://www.w3.org/1999/02/22-rdf-syntax-ns#" xmlns:svg="http://www.w3.org/2000/svg" xmlns="http://www.w3.org/2000/svg" xmlns:sodipodi="http://sodipodi.sourceforge.net/DTD/sodipodi-0.dtd" xmlns:inkscape="http://www.inkscape.org/namespaces/inkscape" version="1.1" x="0px" y="0px" viewBox="0 0 100 125"><g transform="translate(0,-952.36218)"><path style="color:#000000;enable-background:accumulate;" d="m 42,960.36213 -1.9062,10.5 c -1.8532,0.5825 -3.6477,1.3341 -5.3438,2.2188 l -8.8125,-6.0625 -11.3125,11.3125 6.0938,8.7812 c -0.8885,1.701 -1.6345,3.4847 -2.2188,5.3438 l -10.5000001,1.9062 0,16.00007 L 18.5,1012.2684 c 0.5858,1.8637 1.3586,3.639 2.25,5.3438 l -6.125,8.7812 11.3125,11.3125 8.7813,-6.0625 c 1.7035,0.8904 3.5129,1.6335 5.375,2.2188 l 1.9062,10.5 16,0 1.9062,-10.5 c 1.859,-0.5844 3.6428,-1.3304 5.3438,-2.2188 l 8.7812,6.0625 11.3126,-11.3125 -6.0938,-8.7812 c 0.8847,-1.6934 1.6353,-3.4624 2.2188,-5.3125 L 92,1010.3622 l 0,-16.00007 -10.5312,-1.9062 c -0.5806,-1.8467 -1.307,-3.6217 -2.1876,-5.3125 l 6.0626,-8.8125 -11.3126,-11.3125 -8.7812,6.0625 c -1.701,-0.8884 -3.4847,-1.6344 -5.3438,-2.2188 l -1.9062,-10.5 -16,0 z m 8,24 c 9.9412,0 18,8.0588 18,17.99997 0,9.9412 -8.0588,18.0001 -18,18.0001 -9.9411,0 -18,-8.0589 -18,-18.0001 0,-9.94117 8.0589,-17.99997 18,-17.99997 z" fill="#000000" stroke="none" marker="none" visibility="visible" display="inline" overflow="visible"/></g><text x="0" y="115" fill="#000000" font-size="5px" font-weight="bold" font-family="'Helvetica Neue', Helvetica, Arial-Unicode, Arial, Sans-serif">Created by Aya Sofya</text><text x="0" y="120" fill="#000000" font-size="5px" font-weight="bold" font-family="'Helvetica Neue', Helvetica, Arial-Unicode, Arial, Sans-serif">from the Noun Project</text></svg>