<svg xmlns="http://www.w3.org/2000/svg" xmlns:xlink="http://www.w3.org/1999/xlink" version="1.1" x="0px" y="0px" viewBox="0 0 100 125" enable-background="new 0 0 100 100" xml:space="preserve"><path fill="#000000" d="M50,11c21.505,0,39,17.495,39,39S71.505,89,50,89S11,71.505,11,50S28.495,11,50,11 M50,5  C25.147,5,5,25.147,5,50s20.147,45,45,45s45-20.147,45-45S74.853,5,50,5L50,5z"/><path fill="#000000" d="M57.93,66.827c0,0.811-1.913,2.711-5.738,5.7c-3.826,2.989-7.283,4.484-10.374,4.484  c-2.128,0-3.673-0.545-4.636-1.634c-0.963-1.089-1.444-2.318-1.444-3.686c0-0.861,0.126-1.659,0.38-2.394  c0.253-0.734,0.532-1.482,0.836-2.242l7.22-14.972c0.405-0.861,0.697-1.558,0.874-2.09c0.177-0.532,0.266-1,0.266-1.406  c0-0.405-0.076-0.696-0.228-0.874c-0.152-0.177-0.355-0.266-0.608-0.266c-0.659,0-1.938,1.001-3.838,3.002  c-1.9,2.001-3.028,3.002-3.382,3.002c-0.405,0-0.811-0.279-1.216-0.836c-0.406-0.557-0.608-0.912-0.608-1.064  c0-0.507,0.481-1.33,1.444-2.47c0.962-1.14,2.179-2.343,3.648-3.61c1.317-1.165,2.9-2.254,4.75-3.268  c1.849-1.013,3.483-1.52,4.902-1.52c2.28,0,3.99,0.646,5.13,1.938c1.14,1.292,1.71,2.85,1.71,4.674c0,0.76-0.076,1.571-0.228,2.432  c-0.152,0.861-0.481,1.748-0.988,2.66l-5.776,12.692c-0.456,1.064-0.786,1.925-0.988,2.584c-0.203,0.659-0.304,1.115-0.304,1.368  c0,0.304,0.076,0.494,0.228,0.57s0.304,0.114,0.456,0.114c1.114,0,2.419-0.798,3.914-2.394c1.495-1.596,2.444-2.394,2.85-2.394  c0.354,0,0.734,0.266,1.14,0.798C57.727,66.257,57.93,66.625,57.93,66.827z"/><path fill="#000000" d="M63.782,27.611c0,1.875-0.671,3.496-2.014,4.864c-1.343,1.368-2.977,2.052-4.902,2.052  c-1.875,0-3.496-0.684-4.864-2.052c-1.368-1.368-2.052-2.989-2.052-4.864c0-1.875,0.684-3.496,2.052-4.864s2.989-2.052,4.864-2.052  c1.925,0,3.559,0.684,4.902,2.052C63.111,24.116,63.782,25.737,63.782,27.611z"/><text x="0" y="115" fill="#000000" font-size="5px" font-weight="bold" font-family="'Helvetica Neue', Helvetica, Arial-Unicode, Arial, Sans-serif">Created by Jamison Wieser</text><text x="0" y="120" fill="#000000" font-size="5px" font-weight="bold" font-family="'Helvetica Neue', Helvetica, Arial-Unicode, Arial, Sans-serif">from the Noun Project</text></svg>