<svg xmlns="http://www.w3.org/2000/svg" xmlns:xlink="http://www.w3.org/1999/xlink" version="1.1" x="0px" y="0px" viewBox="0 0 100 125" style="enable-background:new 0 0 100 100;" xml:space="preserve"><g><path d="M91,16.5V33c-7-16.5-23.4-28.1-42.4-28.1c-21.9,0-40.3,15.4-44.9,36h5.5c4.5-17.6,20.4-30.6,39.3-30.6   c17,0,31.5,10.5,37.6,25.4H71.8v5.4h24.6V16.5H91z"/><path d="M51.5,89.7c-17,0-31.5-10.5-37.6-25.4h14.3v-5.4H3.6v24.6H9V67c7,16.5,23.4,28.1,42.4,28.1   c21.9,0,40.3-15.4,44.9-36h-5.5C86.4,76.6,70.4,89.7,51.5,89.7z"/></g></svg>