<svg xmlns:dc="http://purl.org/dc/elements/1.1/" xmlns:cc="http://creativecommons.org/ns#" xmlns:rdf="http://www.w3.org/1999/02/22-rdf-syntax-ns#" xmlns:svg="http://www.w3.org/2000/svg" xmlns="http://www.w3.org/2000/svg" xmlns:sodipodi="http://sodipodi.sourceforge.net/DTD/sodipodi-0.dtd" xmlns:inkscape="http://www.inkscape.org/namespaces/inkscape" version="1.1" x="0px" y="0px" viewBox="0 0 100 125"><g transform="translate(0,-952.36218)"><path style="text-indent:0;text-transform:none;direction:ltr;block-progression:tb;baseline-shift:baseline;color:#3C404B;enable-background:accumulate;" d="m 79,965.3935 c 3.86071,0 7,3.13929 7,7 l 0,40 c 0,3.8607 -3.13929,7 -7,7 l -11.98261,0 1.9375,18.875 c 0.10473,0.83 -1.14384,1.4202 -1.71875,0.8125 l -19.750001,-19.6875 -26.48614,0 c -3.86071,0 -7,-3.1393 -7,-7 l 0,-40 c 0,-3.86071 3.13929,-7 7,-7 z m 0,2 -58.000001,0 c -2.787309,0 -5,2.21269 -5,5 l 0,40 c 0,2.7873 2.212691,5 5,5 l 26.89239,0 c 0.26406,-0.01 0.52897,0.097 0.71875,0.2812 l 18.0625,18.0313 -1.78125,-17.2188 c -0.0521,-0.5539 0.443661,-1.0961 1,-1.0937 l 13.10761,0 c 2.78731,0 5,-2.2127 5,-5 l 0,-40 c 0,-2.78731 -2.21269,-5 -5,-5 z m -7,11 c 0.55228,0 1,0.44772 1,1 0,0.55228 -0.44772,1 -1,1 l -44.000001,0 c -0.552279,0 -1,-0.44772 -1,-1 0,-0.55228 0.447721,-1 1,-1 z m 0,12.99999 c 0.55228,0 1,0.4477 1,1 0,0.5523 -0.44772,1 -1,1 l -44.000001,0 c -0.552279,0 -1,-0.4477 -1,-1 0,-0.5523 0.447721,-1 1,-1 z m 0,13.00001 c 0.55228,0 1,0.4477 1,1 0,0.5523 -0.44772,1 -1,1 l -44.000001,0 c -0.552279,0 -1,-0.4477 -1,-1 0,-0.5523 0.447721,-1 1,-1 z" fill="#3C404B" fill-opacity="1" stroke="none" marker="none" visibility="visible" display="inline" overflow="visible"/></g></svg>