<svg xmlns="http://www.w3.org/2000/svg" xmlns:xlink="http://www.w3.org/1999/xlink" version="1.1" x="0px" y="0px" viewBox="0 0 100 125" style="enable-background:new 0 0 100 100;" xml:space="preserve"><g><path d="M81,17.5H19.5c-1.5,0-2.7,1.2-2.7,2.7v61.5c0,1.5,1.2,2.7,2.7,2.7H81c1.5,0,2.7-1.2,2.7-2.7V20.2   C83.7,18.7,82.5,17.5,81,17.5z M78.3,79H22.2V22.9h56.1V79z"/><path d="M30.8,68.3c0,0.1,0,0.1,0.1,0.2c0,0.1,0,0.2,0.1,0.3c0,0.1,0.1,0.2,0.1,0.3c0,0.1,0.1,0.1,0.1,0.2c0.2,0.3,0.5,0.5,0.7,0.7   c0.1,0,0.1,0.1,0.2,0.1c0.1,0,0.2,0.1,0.2,0.1c0.1,0,0.2,0.1,0.3,0.1s0.1,0.1,0.2,0.1c0.2,0,0.4,0.1,0.5,0.1h32.8   c1.5,0,2.7-1.2,2.7-2.7s-1.2-2.7-2.7-2.7H39.9L66,39c1.1-1.1,1.1-2.8,0-3.8c-1.1-1.1-2.8-1.1-3.8,0l-26.1,26V35   c0-1.5-1.2-2.7-2.7-2.7s-2.7,1.2-2.7,2.7v32.8C30.7,67.9,30.7,68.1,30.8,68.3z"/></g><text x="0" y="115" fill="#000000" font-size="5px" font-weight="bold" font-family="'Helvetica Neue', Helvetica, Arial-Unicode, Arial, Sans-serif">Created by Blake Stevenson</text><text x="0" y="120" fill="#000000" font-size="5px" font-weight="bold" font-family="'Helvetica Neue', Helvetica, Arial-Unicode, Arial, Sans-serif">from the Noun Project</text></svg>