<svg xmlns="http://www.w3.org/2000/svg" xmlns:xlink="http://www.w3.org/1999/xlink" version="1.1" x="0px" y="0px" viewBox="0 0 100 125"><path d="M1272,635 l-215,215 c-21,21,-42,42,-21,62 c41,42,103,21,165,83 c62,62,62,144,0,206 c-62,62,-144,62,-206,0 c-62,-62,-41,-124,-83,-165 c-20,-21,-41,0,-62,21 l-215,215 c-35,35,-35,35,-70,0 l-215,-215 c-21,-21,-42,-42,-21,-62 c41,-41,103,-21,165,-83 c62,-62,62,-144,0,-206 c-62,-62,-144,-62,-206,0 c-62,62,-42,124,-83,165 c-20,21,-41,0,-62,-21 l-215,-215 c-35,-35,-35,-35,0,-70 l215,-215 c21,-21,42,-42,21,-62 c-41,-42,-103,-21,-165,-83 c-62,-62,-62,-144,0,-206 c62,-62,144,-62,206,0 c62,62,41,124,83,165 c20,21,41,0,62,-21 l215,-215 c35,-35,35,-35,70,0 l215,215 c21,21,42,42,21,62 c-41,41,-103,21,-165,83 c-62,62,-62,144,0,206 c62,62,144,62,206,0 c62,-62,42,-124,83,-165 c20,-21,41,0,62,21 l215,215 c35,35,35,35,0,70 Z M1272,635 " fill="#000000" stroke="none" stroke-dasharray="none" stroke-linecap="inherit" stroke-linejoin="inherit" stroke-width="1" transform="matrix(0.05,0.0,0.0,-0.05,20.0,80.0)"/><text x="0" y="115" fill="#000000" font-size="5px" font-weight="bold" font-family="'Helvetica Neue', Helvetica, Arial-Unicode, Arial, Sans-serif">Created by Thomas Helbig</text><text x="0" y="120" fill="#000000" font-size="5px" font-weight="bold" font-family="'Helvetica Neue', Helvetica, Arial-Unicode, Arial, Sans-serif">from the Noun Project</text></svg>